<svg xmlns="http://www.w3.org/2000/svg" width="842" height="595" viewBox="0 0 841.9 595.3"><style>.a{fill:#FFF;}</style><path d="M449.2 146c69.1 0 138.1 0 207.2 0 0 52.8 0 105.5 0 158.3 -0.6-2.7-1.3-5.4-1.7-8.1 -9-53-57.8-87-110.1-76.3 -49 10-79.9 56.3-72.9 103.8 8.2 54.8 58.2 85.4 104.3 78.7 36.6-5.3 67.9-32.5 76.8-68.4 1.4-5.7 2.4-11.5 3.5-17.2 0 29 0 58.1 0 87.1 -53.7 0-107.3 0-161 0 -0.5-0.5-1-1.1-1.6-1.5 -29.9-21.7-45-50.9-45-87.9 0.1-54.1 0-108.2 0-162.2C448.9 150.1 449.1 148.1 449.2 146z" class="a"/><path d="M445.6 403.9c-8 0-16 0-24 0 -0.7-1.2-1.3-2.6-2.2-3.7 -13.3-16.3-20.5-35.2-22.5-55.9 -1.2-13.1-0.6-26.3-1.1-39.5 -0.2-5.1-0.7-10.3-2-15.2 -11.9-48-58.7-79-106.2-70.5 -50.1 9-82.3 55.3-76.1 103.1 5.5 42.8 39.9 77 82.9 80.7 27 2.4 50.9-5.6 71.2-23.7 0.9-0.8 1.9-1.6 2.5-2 4.3 9.1 8.4 17.9 12.5 26.8 -56.9 0-113.8 0-170.7 0 0-86 0-171.9 0-257.9 68.2 0 136.4 0 204.5 0 0.1 1.9 0.2 3.8 0.2 5.8 0 55 0 109.9 0 164.9 0 15.7 3 30.8 7.7 45.6C427.3 377.7 435.8 391.2 445.6 403.9z" class="a"/><path d="M380.7 403.9c-4.1-8.8-8.3-17.6-12.5-26.7 -0.6 0.5-1.5 1.2-2.5 2 -20.3 18.2-44.2 26.1-71.2 23.7 -43-3.8-77.4-38-82.9-80.7 -6.2-47.8 26-94.1 76.1-103.1 47.5-8.5 94.2 22.5 106.2 70.5 1.2 4.9 1.8 10.1 2 15.2 0.5 13.2-0.2 26.4 1.1 39.5 2 20.7 9.2 39.6 22.5 55.9 0.9 1.1 1.5 2.5 2.2 3.7C408 403.9 394.3 403.9 380.7 403.9zM245 310.6c0 32.5 25.9 58.5 58.3 58.5 32.3 0 58.5-26.1 58.6-58.4 0.1-32.2-26.1-58.7-58.3-58.8C271.1 251.8 245 277.9 245 310.6z"/><path d="M656.4 316.7c-1.2 5.7-2.1 11.5-3.5 17.2 -8.9 36-40.2 63.1-76.8 68.4 -46.1 6.7-96.1-23.8-104.3-78.7 -7.1-47.5 23.9-93.8 72.9-103.8 52.3-10.7 101 23.3 110.1 76.3 0.5 2.7 1.1 5.4 1.7 8.1C656.4 308.4 656.4 312.6 656.4 316.7zM505.1 310.5c0 32.6 25.8 58.6 58.1 58.7 32.7 0 58.6-26 58.6-58.7 0-32.3-26.1-58.5-58.4-58.5C531 252 505.1 278 505.1 310.5z"/><path d="M445.6 403.9c-9.9-12.7-18.3-26.1-23.2-41.6 -4.7-14.9-7.7-30-7.7-45.6 0-55 0-109.9 0-164.9 0-1.9-0.1-3.8-0.2-5.8 11.6 0 23.1 0 34.7 0 -0.1 2.1-0.3 4.1-0.3 6.2 0 54.1 0 108.2 0 162.3 -0.1 37 15.1 66.2 45 87.9 0.6 0.4 1.1 1 1.6 1.5C478.8 403.9 462.2 403.9 445.6 403.9z"/><path d="M245 310.6c0-32.7 26.1-58.9 58.6-58.7 32.2 0.2 58.4 26.6 58.3 58.8 -0.1 32.3-26.3 58.4-58.6 58.4C270.9 369.2 245 343.2 245 310.6z" class="a"/><path d="M505.1 310.5c0-32.5 25.9-58.5 58.3-58.5 32.3 0 58.4 26.2 58.4 58.5 0 32.7-26 58.7-58.6 58.7C530.8 369.1 505.1 343.1 505.1 310.5z" class="a"/></svg>